<svg width="20" height="21" viewBox="0 0 20 21" fill="none" xmlns="http://www.w3.org/2000/svg">
<path d="M18.3335 9.641V11.3577C18.3335 11.816 17.9668 12.191 17.5001 12.2077H15.8668C14.9668 12.2077 14.1418 11.5493 14.0668 10.6493C14.0168 10.1243 14.2168 9.63267 14.5668 9.291C14.8751 8.97433 15.3001 8.79102 15.7668 8.79102H17.5001C17.9668 8.80768 18.3335 9.18267 18.3335 9.641Z" fill="#363A3F"/>
<path d="M17.0584 13.4584H15.8667C14.2834 13.4584 12.95 12.2667 12.8167 10.75C12.7417 9.88335 13.0584 9.01669 13.6917 8.40002C14.225 7.85002 14.9667 7.54169 15.7667 7.54169H17.0584C17.3 7.54169 17.5 7.34169 17.475 7.10002C17.2917 5.07502 15.95 3.69169 13.9584 3.45835C13.7584 3.42502 13.55 3.41669 13.3334 3.41669H5.83335C5.60002 3.41669 5.37502 3.43335 5.15835 3.46669C3.03335 3.73335 1.66669 5.31669 1.66669 7.58335V13.4167C1.66669 15.7167 3.53335 17.5834 5.83335 17.5834H13.3334C15.6667 17.5834 17.275 16.125 17.475 13.9C17.5 13.6584 17.3 13.4584 17.0584 13.4584ZM10.8334 8.62502H5.83335C5.49169 8.62502 5.20835 8.34169 5.20835 8.00002C5.20835 7.65835 5.49169 7.37502 5.83335 7.37502H10.8334C11.175 7.37502 11.4584 7.65835 11.4584 8.00002C11.4584 8.34169 11.175 8.62502 10.8334 8.62502Z" fill="#363A3F"/>
</svg>
