<svg width="132" height="30" viewBox="0 0 132 30" fill="none" xmlns="http://www.w3.org/2000/svg">
<path fill-rule="evenodd" clip-rule="evenodd" d="M8 0C3.58172 0 0 3.58172 0 8V22C0 22.1899 0.00661649 22.3783 0.0196315 22.5648C0.0129944 22.5744 0.00645061 22.5836 0 22.5927C0 22.9378 0.0426053 23.2176 0.127821 23.4321C0.80282 27.167 4.07057 30 8 30H22C26.4183 30 30 26.4183 30 22L30 19.9851L30 8C30 3.58172 26.4183 0 22 0H8ZM30 19.9851C30 20.2986 29.9163 20.5978 29.749 20.8828C29.6095 21.1393 29.3863 21.3388 29.0795 21.4813C28.8563 21.6238 28.4519 21.8517 27.8661 22.1652L26.0251 23.1057C25.3556 23.4192 24.7141 23.7326 24.1004 24.0461C23.5146 24.3596 23.0962 24.5733 22.8452 24.6873C22.2873 24.9438 21.855 25.1148 21.5481 25.2003C21.2692 25.2573 20.8787 25.2858 20.3766 25.2858C19.8466 25.2858 19.3584 25.1861 18.9121 24.9866C18.4937 24.7871 18.145 24.5021 17.8661 24.1316C17.5872 23.7611 17.3919 23.3479 17.2803 22.8919C17.1688 22.4075 17.1827 21.8945 17.3222 21.353C17.3222 20.4411 17.4756 19.6004 17.7824 18.8309C18.1172 18.033 18.4798 17.2778 18.8703 16.5653C19.2887 15.8243 19.6513 15.0976 19.9582 14.3852C20.2929 13.6442 20.4603 12.8605 20.4603 12.0341C19.8466 12.0341 19.1911 12.2336 18.4937 12.6325C17.7964 13.0315 17.0851 13.5587 16.3598 14.2142C15.6625 14.8696 14.9651 15.6106 14.2678 16.4371C13.5983 17.235 12.9568 18.0472 12.3431 18.8737C11.7573 19.6716 11.2413 20.4411 10.795 21.182C10.3766 21.923 10.0558 22.5357 9.83264 23.0202C9.77685 23.0487 9.63738 23.0772 9.41423 23.1057H8.99582C8.54951 23.3337 8.27057 23.3337 8.159 23.1057C8.07531 22.8492 8.07531 22.4645 8.159 21.9515C8.27057 21.4385 8.43794 20.8686 8.66109 20.2416C8.88424 19.5861 9.09344 18.9734 9.2887 18.4034C9.51186 17.805 9.67922 17.3205 9.79079 16.95C9.90237 16.5511 9.91632 16.3516 9.83264 16.3516C9.91632 16.2376 10.0139 16.0523 10.1255 15.7958C10.2371 15.5394 10.3487 15.2686 10.4603 14.9836C10.5718 14.6987 10.6695 14.4422 10.7531 14.2142C10.8368 13.9577 10.8787 13.7582 10.8787 13.6157C10.8787 13.3592 10.781 13.2025 10.5858 13.1455C10.4184 13.06 10.251 13.0173 10.0837 13.0173C9.58159 12.7323 9.03766 12.9033 8.45188 13.5302C7.894 14.1287 7.28033 14.9979 6.61088 16.1378C5.96932 17.2493 5.25802 18.5317 4.47699 19.9851C3.72385 21.41 2.88703 22.7922 1.96653 24.1316C1.32497 24.1316 0.83682 24.0461 0.502092 23.8751C0.336255 23.7904 0.211496 23.6427 0.127821 23.4321C0.0764672 23.148 0.0401206 22.8586 0.0196315 22.5648C0.242597 22.2452 0.570781 21.6703 1.00418 20.8401C1.45049 19.9566 1.95258 18.9877 2.51046 17.9332C3.06834 16.8788 3.65411 15.8101 4.26778 14.7272C4.90934 13.6442 5.50907 12.7323 6.06695 11.9913C6.65272 11.2219 7.16876 10.7089 7.61506 10.4524C8.08926 10.1674 8.46583 10.2957 8.74477 10.8371C9.21897 10.5237 9.73501 10.2529 10.2929 10.0249C10.8787 9.79694 11.4644 9.68295 12.0502 9.68295C12.4407 9.68295 12.7615 9.81119 13.0126 10.0677C13.2915 10.2957 13.5007 10.5949 13.6402 10.9654C13.8075 11.3074 13.9331 11.6778 14.0167 12.0768C14.1004 12.4473 14.1423 12.775 14.1423 13.06C14.4491 12.8605 14.9512 12.5185 15.6485 12.0341C16.3738 11.5211 17.1409 11.0081 17.9498 10.4952C18.7866 9.98218 19.5955 9.54046 20.3766 9.16998C21.1855 8.771 21.841 8.57151 22.3431 8.57151C22.7894 8.57151 23.166 8.7425 23.4728 9.08448C23.8075 9.39797 23.9749 9.79694 23.9749 10.2814C22.9707 12.7893 22.1757 14.7984 21.59 16.3088C21.0321 17.8192 20.6555 19.0019 20.4603 19.8569C20.2929 20.6833 20.2929 21.2818 20.4603 21.6523C20.6555 21.9942 20.9902 22.265 21.4644 22.4645C22.2176 22.4645 22.9428 22.3362 23.6402 22.0797C24.3375 21.8232 25.0209 21.5383 25.6904 21.2248C26.3877 20.9113 27.0851 20.6263 27.7824 20.3698C28.4798 20.1133 29.219 19.9851 30 19.9851Z" fill="#1B212D"/>
<path d="M49.0576 21.5L45.9639 11.4189H45.8848C45.8965 11.6592 45.9141 12.0225 45.9375 12.5088C45.9668 12.9893 45.9932 13.502 46.0166 14.0469C46.04 14.5918 46.0518 15.084 46.0518 15.5234V21.5H43.6172V8.65039H47.3262L50.3672 18.4766H50.4199L53.6455 8.65039H57.3545V21.5H54.8145V15.418C54.8145 15.0137 54.8203 14.5479 54.832 14.0205C54.8496 13.4932 54.8701 12.9922 54.8936 12.5176C54.917 12.0371 54.9346 11.6768 54.9463 11.4365H54.8672L51.5537 21.5H49.0576ZM69.3164 16.5693C69.3164 17.3896 69.2051 18.1162 68.9824 18.749C68.7656 19.3818 68.4463 19.918 68.0244 20.3574C67.6084 20.791 67.1045 21.1191 66.5127 21.3418C65.9268 21.5645 65.2646 21.6758 64.5264 21.6758C63.835 21.6758 63.1992 21.5645 62.6191 21.3418C62.0449 21.1191 61.5439 20.791 61.1162 20.3574C60.6943 19.918 60.3662 19.3818 60.1318 18.749C59.9033 18.1162 59.7891 17.3896 59.7891 16.5693C59.7891 15.4795 59.9824 14.5566 60.3691 13.8008C60.7559 13.0449 61.3066 12.4707 62.0215 12.0781C62.7363 11.6855 63.5889 11.4893 64.5791 11.4893C65.499 11.4893 66.3135 11.6855 67.0225 12.0781C67.7373 12.4707 68.2969 13.0449 68.7012 13.8008C69.1113 14.5566 69.3164 15.4795 69.3164 16.5693ZM62.5225 16.5693C62.5225 17.2139 62.5928 17.7559 62.7334 18.1953C62.874 18.6348 63.0938 18.9658 63.3926 19.1885C63.6914 19.4111 64.0811 19.5225 64.5615 19.5225C65.0361 19.5225 65.4199 19.4111 65.7129 19.1885C66.0117 18.9658 66.2285 18.6348 66.3633 18.1953C66.5039 17.7559 66.5742 17.2139 66.5742 16.5693C66.5742 15.9189 66.5039 15.3799 66.3633 14.9521C66.2285 14.5186 66.0117 14.1934 65.7129 13.9766C65.4141 13.7598 65.0244 13.6514 64.5439 13.6514C63.835 13.6514 63.3193 13.8945 62.9971 14.3809C62.6807 14.8672 62.5225 15.5967 62.5225 16.5693ZM77.1123 11.4893C78.1611 11.4893 79.0049 11.7764 79.6436 12.3506C80.2822 12.9189 80.6016 13.833 80.6016 15.0928V21.5H77.9209V15.7607C77.9209 15.0576 77.792 14.5273 77.5342 14.1699C77.2822 13.8125 76.8838 13.6338 76.3389 13.6338C75.5186 13.6338 74.959 13.9121 74.6602 14.4688C74.3613 15.0254 74.2119 15.8281 74.2119 16.877V21.5H71.5312V11.6738H73.5791L73.9395 12.9307H74.0889C74.2998 12.5908 74.5605 12.3154 74.8711 12.1045C75.1875 11.8936 75.5361 11.7383 75.917 11.6387C76.3037 11.5391 76.7021 11.4893 77.1123 11.4893ZM92.291 16.5693C92.291 17.3896 92.1797 18.1162 91.957 18.749C91.7402 19.3818 91.4209 19.918 90.999 20.3574C90.583 20.791 90.0791 21.1191 89.4873 21.3418C88.9014 21.5645 88.2393 21.6758 87.501 21.6758C86.8096 21.6758 86.1738 21.5645 85.5938 21.3418C85.0195 21.1191 84.5186 20.791 84.0908 20.3574C83.6689 19.918 83.3408 19.3818 83.1064 18.749C82.8779 18.1162 82.7637 17.3896 82.7637 16.5693C82.7637 15.4795 82.957 14.5566 83.3438 13.8008C83.7305 13.0449 84.2812 12.4707 84.9961 12.0781C85.7109 11.6855 86.5635 11.4893 87.5537 11.4893C88.4736 11.4893 89.2881 11.6855 89.9971 12.0781C90.7119 12.4707 91.2715 13.0449 91.6758 13.8008C92.0859 14.5566 92.291 15.4795 92.291 16.5693ZM85.4971 16.5693C85.4971 17.2139 85.5674 17.7559 85.708 18.1953C85.8486 18.6348 86.0684 18.9658 86.3672 19.1885C86.666 19.4111 87.0557 19.5225 87.5361 19.5225C88.0107 19.5225 88.3945 19.4111 88.6875 19.1885C88.9863 18.9658 89.2031 18.6348 89.3379 18.1953C89.4785 17.7559 89.5488 17.2139 89.5488 16.5693C89.5488 15.9189 89.4785 15.3799 89.3379 14.9521C89.2031 14.5186 88.9863 14.1934 88.6875 13.9766C88.3887 13.7598 87.999 13.6514 87.5186 13.6514C86.8096 13.6514 86.2939 13.8945 85.9717 14.3809C85.6553 14.8672 85.4971 15.5967 85.4971 16.5693ZM97.1865 21.5H94.5059V7.82422H97.1865V21.5ZM104.06 11.4893C104.968 11.4893 105.75 11.665 106.406 12.0166C107.062 12.3623 107.569 12.8662 107.927 13.5283C108.284 14.1904 108.463 14.999 108.463 15.9541V17.2549H102.126C102.155 18.0107 102.381 18.6055 102.803 19.0391C103.23 19.4668 103.822 19.6807 104.578 19.6807C105.205 19.6807 105.779 19.6162 106.301 19.4873C106.822 19.3584 107.358 19.165 107.909 18.9072V20.9814C107.423 21.2217 106.913 21.3975 106.38 21.5088C105.853 21.6201 105.211 21.6758 104.455 21.6758C103.471 21.6758 102.598 21.4941 101.836 21.1309C101.08 20.7676 100.485 20.2139 100.052 19.4697C99.624 18.7256 99.4102 17.7881 99.4102 16.6572C99.4102 15.5088 99.6035 14.5537 99.9902 13.792C100.383 13.0244 100.928 12.4502 101.625 12.0693C102.322 11.6826 103.134 11.4893 104.06 11.4893ZM104.077 13.3965C103.556 13.3965 103.122 13.5635 102.776 13.8975C102.437 14.2314 102.24 14.7559 102.188 15.4707H105.949C105.943 15.0723 105.87 14.7178 105.729 14.4072C105.595 14.0967 105.39 13.8506 105.114 13.6689C104.845 13.4873 104.499 13.3965 104.077 13.3965ZM114.668 11.4717C115.986 11.4717 116.997 11.7588 117.7 12.333C118.403 12.9072 118.755 13.7803 118.755 14.9521V21.5H116.883L116.364 20.1641H116.294C116.013 20.5156 115.726 20.8027 115.433 21.0254C115.14 21.248 114.803 21.4121 114.422 21.5176C114.041 21.623 113.578 21.6758 113.033 21.6758C112.453 21.6758 111.932 21.5645 111.469 21.3418C111.012 21.1191 110.651 20.7793 110.388 20.3223C110.124 19.8594 109.992 19.2734 109.992 18.5645C109.992 17.5215 110.358 16.7539 111.091 16.2617C111.823 15.7637 112.922 15.4883 114.387 15.4355L116.092 15.3828V14.9521C116.092 14.4365 115.957 14.0586 115.688 13.8184C115.418 13.5781 115.043 13.458 114.562 13.458C114.088 13.458 113.622 13.5254 113.165 13.6602C112.708 13.7949 112.251 13.9648 111.794 14.1699L110.906 12.3594C111.428 12.084 112.011 11.8672 112.655 11.709C113.306 11.5508 113.977 11.4717 114.668 11.4717ZM116.092 16.9473L115.055 16.9824C114.188 17.0059 113.584 17.1611 113.244 17.4482C112.91 17.7354 112.743 18.1133 112.743 18.582C112.743 18.9922 112.863 19.2852 113.104 19.4609C113.344 19.6309 113.657 19.7158 114.044 19.7158C114.618 19.7158 115.102 19.5459 115.494 19.2061C115.893 18.8662 116.092 18.3828 116.092 17.7559V16.9473ZM124.204 7.82422V13.9414C124.204 14.3105 124.189 14.6797 124.16 15.0488C124.131 15.418 124.099 15.7871 124.063 16.1562H124.099C124.28 15.8984 124.465 15.6436 124.652 15.3916C124.846 15.1396 125.051 14.8965 125.268 14.6621L128.019 11.6738H131.042L127.14 15.9365L131.279 21.5H128.186L125.355 17.5186L124.204 18.4414V21.5H121.523V7.82422H124.204Z" fill="#1B212D"/>
</svg>
